<?xml version="1.0" encoding="utf-8"?>
<!-- Generator: Adobe Illustrator 23.1.0, SVG Export Plug-In . SVG Version: 6.00 Build 0)  -->
<svg version="1.1" id="Capa_1" xmlns="http://www.w3.org/2000/svg" xmlns:xlink="http://www.w3.org/1999/xlink" x="0px" y="0px"
	 viewBox="0 0 124.5 121.1" enable-background="new 0 0 124.5 121.1" xml:space="preserve">
<g>
	<path fill="#BC8E56" d="M113.8,45c-6.6-23.3-29.4-41-54.2-38.1c-0.1-0.2-0.3-0.2-0.6-0.2C36.3,9,18,25.4,11.2,46.8
		c-0.8,2.7-1.5,5.4-2,8.2C9,55,8.9,55.3,9.1,55.5c-0.2,1-0.3,2-0.4,3c-0.1,0.1-0.1,0.2,0,0.3c-0.9,7.3-0.4,14.8,1.6,21.8
		c0.8,2.9,2,5.6,3.4,8.1c0,0.2,0.1,0.4,0.3,0.5c3.8,6.5,9.4,11.7,16,16c9.8,6.4,20.5,10.7,32.4,10.6c1.3,0,2.6-0.1,3.9-0.2
		c0.2,0.2,0.7,0.2,0.8-0.1c8.9-0.9,17.7-4,25.3-8.7c9.9-6.2,17-14.6,20.6-25.7C116.6,69.5,117.1,56.7,113.8,45z"/>
	
		<path fill="none" stroke="#FFFFFF" stroke-width="0.9" stroke-linecap="round" stroke-miterlimit="10" stroke-dasharray="5.4,9" d="
		M111.2,45.8c-6.3-22.1-27.9-39-51.5-36.2c-0.1-0.1-0.3-0.2-0.6-0.2c-21.5,2.3-39,17.9-45.4,38.1c-0.8,2.5-1.4,5.1-1.9,7.8
		c-0.2,0.1-0.2,0.4-0.1,0.5c-0.2,0.9-0.3,1.9-0.4,2.8c-0.1,0.1-0.1,0.2,0,0.3c-0.8,6.9-0.4,14,1.5,20.7c0.8,2.7,1.9,5.3,3.2,7.7
		c0,0.2,0.1,0.4,0.3,0.4c3.6,6.2,8.9,11.2,15.2,15.2C40.8,109,51,113.2,62.3,113c1.2,0,2.5-0.1,3.7-0.2c0.2,0.2,0.6,0.2,0.8-0.1
		c8.5-0.8,16.8-3.8,24-8.3c9.4-5.9,16.2-13.9,19.5-24.4C113.8,69,114.4,57,111.2,45.8z"/>
	<g>
		
			<path fill="none" stroke="#FFFFFF" stroke-width="2.7" stroke-linecap="round" stroke-linejoin="round" stroke-miterlimit="10" d="
			M62,28.6c5.4-3.3,13.8-1.1,16.4,1.7c4.6,4.8,5.8,12.1,3,17.9c-0.6,1.3-1.1,2.6-1.9,3.8c-3.8,5.9-4.8,12.4-4.1,19.4
			c0.6,5.9-1.7,11.1-6,15.2c-3.9,3.8-8.4,6.9-13.8,8.4c-4.8,1.4-8.2-0.2-11.2-4.1c-6.1-8.2-3-21.8,4.1-29.1c2.2-2.2,2.9-4.3,2.7-7.4
			c-0.3-4.9,0-9.9,1.2-14.7C53.9,34.3,57.3,30.9,62,28.6z"/>
		<g>
			<path fill="none" stroke="#FFFFFF" stroke-width="0.45" stroke-linecap="round" stroke-linejoin="round" d="M45.6,86.5
				c7.3-15.1,16.6-31,10.1-48.3"/>
		</g>
		<g>
			<path fill="none" stroke="#FFFFFF" stroke-width="0.45" stroke-linecap="round" stroke-linejoin="round" d="M57.7,87.4
				c1.2-3.4,2.6-6.7,3.8-10.2c2.9-8.3,5-15.7,5.4-25.7c0.3-5.9,1.6-12-1-17.3"/>
		</g>
		<g>
			<path fill="none" stroke="#FFFFFF" stroke-width="0.45" stroke-linecap="round" stroke-linejoin="round" d="M50.6,90.9
				c4.3-10.5,7.8-21.3,10.4-32.3c1.9-8.3,3.3-17.2,0-25"/>
		</g>
		<g>
			<path fill="none" stroke="#FFFFFF" stroke-width="0.45" stroke-linecap="round" stroke-linejoin="round" d="M54.6,42.2
				c6.2-1.3,10-1.5,14.3-1.4c1.2,0,5,0.5,6,0.8"/>
		</g>
		<g>
			<path fill="none" stroke="#FFFFFF" stroke-width="0.45" stroke-linecap="round" stroke-linejoin="round" d="M53.9,50.6
				c3.1-1,6.2-1.7,9.4-2.1c4.9-0.7,6.8,0.5,9,2.8c0.3,0.3,0.4,0.9,0,0.8"/>
		</g>
		<g>
			<path fill="none" stroke="#FFFFFF" stroke-width="0.45" stroke-linecap="round" stroke-linejoin="round" d="M54.4,60.3
				c4.3-0.8,8.9-0.3,12.8,1.6"/>
		</g>
		<g>
			<path fill="none" stroke="#FFFFFF" stroke-width="0.45" stroke-linecap="round" stroke-linejoin="round" d="M45.5,70.9
				c3.1-0.3,6.2-0.6,9.3-0.9c2.1-0.2,4.2-0.4,6.2,0.2c2.2,0.6,4.1,2,5.8,3.4"/>
		</g>
		<g>
			<path fill="none" stroke="#FFFFFF" stroke-width="0.45" stroke-linecap="round" stroke-linejoin="round" d="M44.8,80.7
				c4.3-2,9.2-2.6,13.9-1.7c2.3,0.4,4.7,1.4,6,3.4c-0.2-0.2-0.4-0.3-0.5-0.5"/>
		</g>
	</g>
</g>
</svg>
