<?xml version="1.0" encoding="utf-8"?>
<!-- Generator: Adobe Illustrator 23.1.0, SVG Export Plug-In . SVG Version: 6.00 Build 0)  -->
<svg version="1.1" id="Capa_1" xmlns="http://www.w3.org/2000/svg" xmlns:xlink="http://www.w3.org/1999/xlink" x="0px" y="0px"
	 viewBox="0 0 124.5 121.1" enable-background="new 0 0 124.5 121.1" xml:space="preserve">
<g>
	<path fill="#F18669" d="M113.8,45.1C107.2,21.8,84.5,4,59.7,6.8c-0.1-0.2-0.3-0.2-0.6-0.2C36.4,9,18,25.3,11.2,46.7
		c-0.8,2.7-1.5,5.4-2,8.2c-0.2,0.1-0.3,0.4-0.1,0.5c-0.2,1-0.3,2-0.4,3c-0.1,0.1-0.1,0.2,0,0.3C7.7,66,8.2,73.4,10.2,80.5
		c0.8,2.9,2,5.6,3.4,8.1c0,0.2,0.1,0.4,0.3,0.5c3.8,6.5,9.4,11.8,16,16.1c9.8,6.4,20.5,10.8,32.3,10.7c1.3,0,2.6-0.1,3.9-0.2
		c0.2,0.2,0.7,0.2,0.8-0.1c9-0.9,17.7-3.9,25.3-8.7c9.9-6.2,17-14.6,20.6-25.7C116.5,69.6,117.1,56.9,113.8,45.1z"/>
	
		<path fill="none" stroke="#FFFFFF" stroke-width="0.9" stroke-linecap="round" stroke-miterlimit="10" stroke-dasharray="5.4,9" d="
		M111.2,45.9c-6.3-22.1-27.9-39-51.4-36.3c-0.1-0.1-0.3-0.2-0.6-0.2c-21.5,2.2-39,17.8-45.5,38c-0.8,2.5-1.5,5.1-1.9,7.8
		c-0.2,0.1-0.2,0.4-0.1,0.5c-0.2,0.9-0.3,1.9-0.4,2.8c-0.1,0.1-0.1,0.2,0,0.3c-0.8,6.9-0.4,14,1.5,20.7c0.8,2.8,1.9,5.3,3.2,7.7
		c0,0.2,0.1,0.4,0.3,0.4c3.6,6.2,8.9,11.2,15.2,15.3c9.3,6.1,19.5,10.2,30.7,10.1c1.2,0,2.5-0.1,3.7-0.2c0.2,0.2,0.6,0.2,0.8-0.1
		c8.5-0.8,16.8-3.7,24-8.2c9.4-5.9,16.2-13.8,19.6-24.4C113.8,69.1,114.4,57.1,111.2,45.9z"/>
	<g>
		
			<line fill="none" stroke="#FFFFFF" stroke-width="0.45" stroke-linecap="round" stroke-linejoin="round" stroke-miterlimit="10" x1="56.1" y1="28.1" x2="58.8" y2="41"/>
		
			<line fill="none" stroke="#FFFFFF" stroke-width="0.45" stroke-linecap="round" stroke-linejoin="round" stroke-miterlimit="10" x1="67.8" y1="28.1" x2="65.9" y2="41.4"/>
		
			<path fill="none" stroke="#FFFFFF" stroke-width="2.7" stroke-linecap="round" stroke-linejoin="round" stroke-miterlimit="10" d="
			M71.5,54.2C83.4,54,81.7,41.4,81.7,41.4s13-4.2,6.2-12.1c0,0-1.9-2.9-4.8-3.2l-0.8,7.3L75.2,33c0,0-1.7,4,4.5,8"/>
		
			<polyline fill="none" stroke="#FFFFFF" stroke-width="0.45" stroke-linecap="round" stroke-linejoin="round" stroke-miterlimit="10" points="
			85,58 78.1,62.3 70.9,62.3 		"/>
		
			<polyline fill="none" stroke="#FFFFFF" stroke-width="0.45" stroke-linecap="round" stroke-linejoin="round" stroke-miterlimit="10" points="
			84.5,65.7 78.2,69.7 68.4,69.7 		"/>
		
			<path fill="none" stroke="#FFFFFF" stroke-width="2.7" stroke-linecap="round" stroke-linejoin="round" stroke-miterlimit="10" d="
			M52.7,54.2C40.8,54,42.5,41.4,42.5,41.4s-13-4.2-6.2-12.1c0,0,1.9-2.9,4.8-3.2l0.8,7.3L49,33c0,0,1.7,4-4.5,8"/>
		
			<polyline fill="none" stroke="#FFFFFF" stroke-width="0.45" stroke-linecap="round" stroke-linejoin="round" stroke-miterlimit="10" points="
			39.3,58 46.3,62.3 53.3,62.3 		"/>
		
			<polyline fill="none" stroke="#FFFFFF" stroke-width="0.45" stroke-linecap="round" stroke-linejoin="round" stroke-miterlimit="10" points="
			39.8,65.7 46.2,69.7 56,69.7 		"/>
		
			<line fill="none" stroke="#FFFFFF" stroke-width="2.7" stroke-linecap="round" stroke-linejoin="round" stroke-miterlimit="10" x1="58.5" y1="85.3" x2="58.5" y2="74"/>
		
			<line fill="none" stroke="#FFFFFF" stroke-width="2.7" stroke-linecap="round" stroke-linejoin="round" stroke-miterlimit="10" x1="65.9" y1="73.5" x2="65.9" y2="86.5"/>
		
			<line fill="none" stroke="#FFFFFF" stroke-width="0.45" stroke-linecap="round" stroke-linejoin="round" stroke-miterlimit="10" x1="59.7" y1="76.9" x2="65.9" y2="76.9"/>
		
			<line fill="none" stroke="#FFFFFF" stroke-width="0.45" stroke-linecap="round" stroke-linejoin="round" stroke-miterlimit="10" x1="59.7" y1="81.9" x2="65.9" y2="81.9"/>
		
			<ellipse fill="none" stroke="#FFFFFF" stroke-width="2.7" stroke-linecap="round" stroke-linejoin="round" stroke-miterlimit="10" cx="62.1" cy="56.7" rx="9.4" ry="16.8"/>
		
			<path fill="none" stroke="#FFFFFF" stroke-width="2.7" stroke-linecap="round" stroke-linejoin="round" stroke-miterlimit="10" d="
			M63.1,86.9c0,0,7.7,0.9,7.8,6.7c0,0,0.3,3.1-5.8,2.6l-3-0.3l-3,0.3c-6.1,0.5-5.8-2.6-5.8-2.6c0.1-5.8,7.8-6.7,7.8-6.7"/>
		
			<path fill="none" stroke="#FFFFFF" stroke-width="0.45" stroke-linecap="round" stroke-linejoin="round" stroke-miterlimit="10" d="
			M60,42.9c0,0-5.1,3.2-5,16.1"/>
	</g>
</g>
</svg>
