<?xml version="1.0" encoding="utf-8"?>
<!-- Generator: Adobe Illustrator 23.1.0, SVG Export Plug-In . SVG Version: 6.00 Build 0)  -->
<svg version="1.1" id="Capa_1" xmlns="http://www.w3.org/2000/svg" xmlns:xlink="http://www.w3.org/1999/xlink" x="0px" y="0px"
	 viewBox="0 0 124.5 121.1" enable-background="new 0 0 124.5 121.1" xml:space="preserve">
<g>
	<path fill="#BC8E56" d="M113.8,45.2C107.3,21.9,84.6,4,59.8,6.8c-0.1-0.2-0.3-0.2-0.6-0.2C36.6,8.9,18.1,25.2,11.3,46.5
		c-0.9,2.7-1.5,5.4-2.1,8.2C9,54.8,9,55.1,9.1,55.3c-0.2,1-0.3,2-0.4,3c-0.1,0.1-0.1,0.2,0,0.3c-0.9,7.3-0.5,14.8,1.5,21.8
		c0.8,2.9,2,5.6,3.4,8.1c0,0.2,0.1,0.4,0.3,0.5c3.8,6.5,9.4,11.8,15.9,16.1c9.8,6.4,20.5,10.8,32.3,10.7c1.3,0,2.6-0.1,3.9-0.2
		c0.2,0.2,0.7,0.2,0.8-0.1c9-0.8,17.7-3.9,25.3-8.6c9.9-6.2,17.1-14.5,20.7-25.6C116.5,69.7,117.1,57,113.8,45.2z"/>
	
		<path fill="none" stroke="#FFFFFF" stroke-width="0.9" stroke-linecap="round" stroke-miterlimit="10" stroke-dasharray="5.4,9" d="
		M111.2,46C105,23.9,83.5,6.9,59.9,9.5c-0.1-0.1-0.3-0.2-0.6-0.2c-21.5,2.2-39,17.7-45.5,37.9c-0.8,2.5-1.5,5.1-2,7.8
		c-0.2,0.1-0.2,0.4-0.1,0.5c-0.2,0.9-0.3,1.9-0.4,2.8c-0.1,0.1-0.1,0.2,0,0.3c-0.8,6.9-0.5,14,1.5,20.7c0.8,2.8,1.9,5.3,3.2,7.7
		c0,0.2,0.1,0.4,0.3,0.4c3.6,6.2,8.9,11.2,15.1,15.3c9.3,6.1,19.5,10.3,30.7,10.2c1.2,0,2.5-0.1,3.7-0.2c0.2,0.2,0.6,0.2,0.8-0.1
		c8.5-0.8,16.8-3.7,24-8.2c9.4-5.9,16.2-13.8,19.6-24.3C113.8,69.2,114.4,57.2,111.2,46z"/>
	<g>
		
			<path fill="none" stroke="#FFFFFF" stroke-width="1.8" stroke-linecap="round" stroke-linejoin="round" stroke-miterlimit="10" d="
			M63.7,44.2c-0.3-1-0.5-2-0.3-3c0.3-1,1.2-1.9,2.2-1.7c-0.3-1,1.1-1.6,2.1-1.7c1.2-0.1,2.5-0.2,3.5,0.4c1,0.6,1.5,2.2,0.6,3
			c1.9,0.5,3.7,1.5,4.7,3.2s1.1,4-0.2,5.5c3.1,1.5,4.7,4,5.3,7.4c0.6,3.4-0.5,7.4-3.9,7.7c2.6,2.6,3.2,5,2.3,8.5
			c-0.5,1.7-1.6,4.2-3.1,5.1s-3.8,1.6-4.5,0c-0.2,2.4-0.8,3.1-2.2,3.9c-1.3,0.8-2.9,2-3.8,0.7c-0.1,1-1,2-2,2
			c-1,0.1-2.1-0.7-2.3-1.7c-0.1-0.7,0.1-1.4,0.1-2.1c0.1-1.5-0.6-2.9-0.7-4.4c-0.1-1.5,0.9-3.2,2.4-3c-2-1.9-1.9-5.5,0.2-7.2
			c-1.6-0.9-2-3.4-0.8-4.7c0.3-0.3,0.7-0.6,0.7-1c0.1-0.5-0.2-1-0.6-1.4c-0.8-1.1-1.4-2.3-1.3-3.6s1-2.6,2.3-2.8
			c-2.6-2.3-2.8-6.9-0.5-9.4"/>
		
			<path fill="none" stroke="#FFFFFF" stroke-width="0.45" stroke-linecap="round" stroke-linejoin="round" stroke-miterlimit="10" d="
			M61.4,90.4c-24.1-3.1-24.3-30.5-24.3-30.5c1-24.7,24.3-27,24.3-27s23.3,2.3,24.3,27C85.7,59.8,85.6,87.2,61.4,90.4z"/>
		
			<path fill="none" stroke="#FFFFFF" stroke-width="2.7" stroke-linecap="round" stroke-linejoin="round" stroke-miterlimit="10" d="
			M61.4,96.3c-29.8-4.6-29-35.7-29-35.7c0.4-30.2,29-33.8,29-33.8s28.6,3.6,29,33.8C90.4,60.6,91.3,91.6,61.4,96.3z"/>
		
			<path fill="none" stroke="#FFFFFF" stroke-width="1.8" stroke-linecap="round" stroke-linejoin="round" stroke-miterlimit="10" d="
			M59.2,44.2c0.3-1,0.5-2,0.3-3c-0.3-1-1.2-1.9-2.2-1.7c0.3-1-1.1-1.6-2.1-1.7c-1.2-0.1-2.5-0.2-3.5,0.4c-1,0.6-1.5,2.2-0.6,3
			c-1.9,0.5-3.7,1.5-4.7,3.2s-1.1,4,0.2,5.5c-3.1,1.5-4.7,4-5.3,7.4s0.5,7.4,3.9,7.7c-2.6,2.6-3.2,5-2.3,8.5
			c0.5,1.7,1.6,4.2,3.1,5.1s3.8,1.6,4.5,0c0.2,2.4,0.8,3.1,2.2,3.9c1.3,0.8,2.9,2,3.8,0.7c0.1,1,1,2,2,2c1,0.1,2.1-0.7,2.3-1.7
			c0.1-0.7-0.1-1.4-0.1-2.1c-0.1-1.5,0.6-2.9,0.7-4.4c0.1-1.5-0.9-3.2-2.4-3c2-1.9,1.9-5.5-0.2-7.2c1.6-0.9,2-3.4,0.8-4.7
			c-0.3-0.3-0.7-0.6-0.7-1c-0.1-0.5,0.2-1,0.6-1.4c0.8-1.1,1.4-2.3,1.3-3.6c-0.1-1.3-1-2.6-2.3-2.8c2.6-2.3,2.8-6.9,0.5-9.4"/>
	</g>
</g>
</svg>
