<?xml version="1.0" encoding="utf-8"?>
<!-- Generator: Adobe Illustrator 23.1.0, SVG Export Plug-In . SVG Version: 6.00 Build 0)  -->
<svg version="1.1" id="Capa_1" xmlns="http://www.w3.org/2000/svg" xmlns:xlink="http://www.w3.org/1999/xlink" x="0px" y="0px"
	 viewBox="0 0 124.5 121.1" enable-background="new 0 0 124.5 121.1" xml:space="preserve">
<g>
	<path fill="#F7DD47" d="M113.8,45.1C107.2,21.8,84.4,4,59.6,6.8c-0.1-0.2-0.3-0.2-0.6-0.2C36.4,9,18,25.4,11.2,46.7
		c-0.8,2.7-1.5,5.4-2,8.2C9,55,8.9,55.3,9.1,55.4c-0.2,1-0.3,2-0.4,3c-0.1,0.1-0.1,0.2,0,0.3C7.7,66,8.2,73.5,10.2,80.5
		c0.8,2.9,2,5.6,3.4,8.1c0,0.2,0.1,0.4,0.3,0.5c3.8,6.5,9.4,11.8,16,16.1c9.8,6.4,20.5,10.8,32.4,10.7c1.3,0,2.6-0.1,3.9-0.2
		c0.2,0.2,0.7,0.2,0.8-0.1c8.9-0.9,17.7-3.9,25.3-8.7c9.9-6.2,17-14.6,20.6-25.7C116.5,69.5,117.1,56.8,113.8,45.1z"/>
	
		<path fill="none" stroke="#FFFFFF" stroke-width="0.9" stroke-linecap="round" stroke-miterlimit="10" stroke-dasharray="5.4,9" d="
		M111.2,45.9c-6.3-22.1-27.9-39-51.4-36.3c-0.1-0.1-0.3-0.2-0.6-0.2c-21.5,2.3-39,17.8-45.4,38.1c-0.8,2.5-1.5,5.1-1.9,7.8
		c-0.2,0.1-0.2,0.4-0.1,0.5c-0.2,0.9-0.3,1.9-0.4,2.8c-0.1,0.1-0.1,0.2,0,0.3c-0.8,6.9-0.4,14,1.5,20.7c0.8,2.8,1.9,5.3,3.2,7.7
		c0,0.2,0.1,0.4,0.3,0.4c3.6,6.2,8.9,11.2,15.2,15.3C40.8,109,51,113.1,62.2,113c1.2,0,2.5-0.1,3.7-0.2c0.2,0.2,0.6,0.2,0.8-0.1
		c8.5-0.8,16.8-3.7,24-8.2c9.4-5.9,16.2-13.8,19.6-24.4C113.8,69.1,114.4,57,111.2,45.9z"/>
	<g>
		
			<path fill="none" stroke="#FFFFFF" stroke-width="2.7" stroke-linecap="round" stroke-linejoin="round" stroke-miterlimit="10" d="
			M65.6,55.6c-0.1-1.5,0-3,0.4-4.5c0.5-1.8,1.5-3.6,3.2-4.2c1.1-0.3,2.3,0,3.4-0.1c2.3-0.1,4.5-2,5.1-4.3c-0.1,1.7,0.3,3.4,0.2,5.1
			c-0.1,1.7-0.7,3.4-1.7,4.8c-0.4,0.5-0.8,1-1.4,1.4c-1.2,0.8-2.7,0.9-4.1,1c-1.4,0.1-2.9,0.4-3.9,1.4"/>
		
			<path fill="none" stroke="#FFFFFF" stroke-width="2.7" stroke-linecap="round" stroke-linejoin="round" stroke-miterlimit="10" d="
			M61.7,66.5c0-1.5,0.4-3,0.9-4.4c0.7-1.7,1.9-3.5,3.6-3.7c1.1-0.2,2.2,0.3,3.4,0.3c2.3,0.2,4.7-1.4,5.6-3.7
			c-0.2,1.7-0.1,3.4-0.4,5.1c-0.3,1.7-1.1,3.3-2.2,4.5c-0.4,0.5-0.9,0.9-1.5,1.2c-1.3,0.6-2.7,0.5-4.1,0.5c-1.4,0-2.9,0-4,1"/>
		
			<path fill="none" stroke="#FFFFFF" stroke-width="2.7" stroke-linecap="round" stroke-linejoin="round" stroke-miterlimit="10" d="
			M58.1,76.4c0.1-1.5,0.5-3,1.1-4.4c0.7-1.7,2-3.4,3.8-3.6c1.1-0.1,2.2,0.4,3.3,0.5c2.3,0.3,4.8-1.2,5.7-3.4
			c-0.3,1.7-0.2,3.4-0.6,5.1c-0.4,1.7-1.2,3.2-2.4,4.4c-0.5,0.5-1,0.9-1.6,1.2c-1.3,0.6-2.8,0.4-4.2,0.3s-2.9-0.1-4.1,0.8"/>
		
			<path fill="none" stroke="#FFFFFF" stroke-width="2.7" stroke-linecap="round" stroke-linejoin="round" stroke-miterlimit="10" d="
			M54.3,85.9c0.2-1.5,0.7-3,1.4-4.3c0.8-1.6,2.2-3.2,4-3.3c1.1-0.1,2.2,0.5,3.3,0.7c2.3,0.4,4.8-0.9,5.9-3.1c-0.4,1.6-0.4,3.4-0.9,5
			c-0.5,1.6-1.4,3.1-2.7,4.3c-0.5,0.4-1,0.8-1.6,1.1c-1.3,0.5-2.8,0.2-4.2,0c-1.4-0.2-2.9-0.3-4.1,0.5"/>
		
			<path fill="none" stroke="#FFFFFF" stroke-width="2.7" stroke-linecap="round" stroke-linejoin="round" stroke-miterlimit="10" d="
			M63.2,54.7c1-1.1,1.9-2.4,2.5-3.8c0.7-1.7,1.1-3.8,0.1-5.2c-0.7-0.9-1.8-1.4-2.6-2.2c-1.8-1.6-2.3-4.4-1.3-6.6
			c-1,1.4-2.3,2.5-3.3,3.8c-1,1.4-1.5,3.1-1.6,4.8c0,0.7,0,1.3,0.2,2c0.4,1.4,1.6,2.3,2.6,3.3c1,1,2,2.1,2.2,3.5"/>
		
			<path fill="none" stroke="#FFFFFF" stroke-width="2.7" stroke-linecap="round" stroke-linejoin="round" stroke-miterlimit="10" d="
			M59.5,65.7c0.9-1.2,1.6-2.6,2.1-4c0.5-1.8,0.7-3.9-0.5-5.2c-0.8-0.8-1.9-1.2-2.8-1.8c-1.9-1.3-2.8-4-2.1-6.3
			c-0.8,1.5-2.1,2.7-2.9,4.2c-0.8,1.5-1.2,3.2-1.1,4.9c0,0.7,0.2,1.3,0.4,1.9c0.6,1.3,1.8,2.1,3,2.9c1.1,0.8,2.3,1.8,2.6,3.2"/>
		
			<path fill="none" stroke="#FFFFFF" stroke-width="2.7" stroke-linecap="round" stroke-linejoin="round" stroke-miterlimit="10" d="
			M56.2,75.7c0.8-1.3,1.5-2.7,1.9-4.1c0.5-1.8,0.5-3.9-0.8-5.2c-0.8-0.8-2-1.1-2.9-1.7c-2-1.2-3-3.9-2.4-6.2
			c-0.8,1.5-1.9,2.8-2.7,4.3c-0.7,1.5-1,3.3-0.8,5c0.1,0.7,0.2,1.3,0.5,1.9c0.7,1.3,1.9,2,3.1,2.8c1.2,0.8,2.4,1.7,2.7,3.1"/>
		
			<path fill="none" stroke="#FFFFFF" stroke-width="2.7" stroke-linecap="round" stroke-linejoin="round" stroke-miterlimit="10" d="
			M53.2,85.5c0.8-1.3,1.3-2.8,1.6-4.2c0.4-1.8,0.2-3.9-1.1-5.1c-0.9-0.7-2-1-3-1.5c-2.1-1.1-3.2-3.7-2.7-6.1
			c-0.7,1.6-1.8,2.9-2.4,4.5c-0.6,1.6-0.8,3.3-0.5,5c0.1,0.6,0.3,1.3,0.6,1.8c0.7,1.2,2,1.9,3.3,2.6c1.2,0.7,2.5,1.6,2.9,2.9"/>
		
			<path fill="none" stroke="#FFFFFF" stroke-width="2.7" stroke-linecap="round" stroke-linejoin="round" stroke-miterlimit="10" d="
			M68.6,45.4c1.3-1.3,2.6-2.6,3.7-4.1c1-1.5,1.8-3.4,1.9-5.2c0-1.6-0.5-3.1-0.8-4.7c-0.3-1.5-0.1-3.3,0.4-4.7
			c-0.3,1.3-1.2,3.1-2.5,4.1c-1.2,1-2.6,1.8-3.6,3.1c-1.3,1.6-1.9,3.8-1.8,5.8s0.8,3.9,1.8,5.6L50.7,96.4c0,0,3.2-7.2-3.4-10.8"/>
	</g>
</g>
</svg>
