<?xml version="1.0" encoding="utf-8"?>
<!-- Generator: Adobe Illustrator 23.1.0, SVG Export Plug-In . SVG Version: 6.00 Build 0)  -->
<svg version="1.1" id="Capa_1" xmlns="http://www.w3.org/2000/svg" xmlns:xlink="http://www.w3.org/1999/xlink" x="0px" y="0px"
	 viewBox="0 0 124.5 121.1" enable-background="new 0 0 124.5 121.1" xml:space="preserve">
<g>
	<path fill="#82CEEC" d="M113.8,45.2C107.3,21.9,84.6,4,59.8,6.8c-0.1-0.2-0.3-0.2-0.6-0.2C36.5,8.9,18.1,25.2,11.3,46.6
		c-0.9,2.7-1.5,5.4-2.1,8.2C9,54.8,9,55.1,9.1,55.3c-0.2,1-0.3,2-0.4,3c-0.1,0.1-0.1,0.2,0,0.3c-0.9,7.3-0.5,14.8,1.5,21.8
		c0.8,2.9,2,5.6,3.4,8.1c0,0.2,0.1,0.4,0.3,0.5c3.8,6.5,9.4,11.8,15.9,16.1c9.8,6.4,20.5,10.8,32.3,10.7c1.3,0,2.6-0.1,3.9-0.2
		c0.2,0.2,0.7,0.2,0.8-0.1c9-0.8,17.7-3.9,25.3-8.6c9.9-6.2,17.1-14.5,20.7-25.6C116.5,69.7,117.1,56.9,113.8,45.2z"/>
	
		<path fill="none" stroke="#FFFFFF" stroke-width="0.9" stroke-linecap="round" stroke-miterlimit="10" stroke-dasharray="5.4,9" d="
		M111.2,46C105,23.9,83.4,6.9,59.9,9.5c-0.1-0.1-0.3-0.2-0.6-0.2c-21.5,2.2-39,17.7-45.5,38c-0.8,2.5-1.5,5.1-2,7.8
		c-0.2,0.1-0.2,0.4-0.1,0.5c-0.2,0.9-0.3,1.9-0.4,2.8c-0.1,0.1-0.1,0.2,0,0.3c-0.8,6.9-0.5,14,1.5,20.7c0.8,2.8,1.9,5.3,3.2,7.7
		c0,0.2,0.1,0.4,0.3,0.4c3.6,6.2,8.9,11.2,15.1,15.3c9.3,6.1,19.5,10.3,30.7,10.2c1.2,0,2.5-0.1,3.7-0.2c0.2,0.2,0.6,0.2,0.8-0.1
		c8.5-0.8,16.8-3.7,24-8.2c9.4-5.9,16.2-13.8,19.6-24.4C113.8,69.2,114.4,57.2,111.2,46z"/>
	<g>
		
			<rect x="28.9" y="54.1" transform="matrix(1.523329e-02 -0.9999 0.9999 1.523329e-02 -13.8153 122.3477)" fill="none" stroke="#FFFFFF" stroke-width="2.7" stroke-linecap="round" stroke-linejoin="round" stroke-miterlimit="10" width="52.5" height="28.1"/>
		
			<polygon fill="none" stroke="#FFFFFF" stroke-width="2.7" stroke-linecap="round" stroke-linejoin="round" stroke-miterlimit="10" points="
			78.2,33.8 82.1,39.8 81.3,90 68.8,94.7 69.6,42.1 		"/>
		
			<polygon fill="none" stroke="#FFFFFF" stroke-width="2.7" stroke-linecap="round" stroke-linejoin="round" stroke-miterlimit="10" points="
			50,33.4 41.6,41.7 69.6,42.1 78.2,33.8 		"/>
		
			<rect x="61.7" y="17" transform="matrix(1.523329e-02 -0.9999 0.9999 1.523329e-02 32.1088 94.7597)" fill="none" stroke="#FFFFFF" stroke-width="2.7" stroke-linecap="round" stroke-linejoin="round" stroke-miterlimit="10" width="5" height="28.2"/>
		
			<rect x="44.1" y="50.2" transform="matrix(0.9999 1.523329e-02 -1.523329e-02 0.9999 0.9386 -0.8331)" fill="none" stroke="#FFFFFF" stroke-width="0.45" stroke-linecap="round" stroke-linejoin="round" stroke-miterlimit="10" width="22" height="22"/>
		
			<line fill="none" stroke="#FFFFFF" stroke-width="0.45" stroke-linecap="round" stroke-linejoin="round" stroke-miterlimit="10" x1="43.9" y1="76.6" x2="65.9" y2="76.9"/>
		
			<ellipse transform="matrix(0.9844 -0.1758 0.1758 0.9844 -5.7582 10.9642)" fill="none" stroke="#FFFFFF" stroke-width="0.45" stroke-linecap="round" stroke-linejoin="round" stroke-miterlimit="10" cx="59" cy="38" rx="3" ry="1.9"/>
		
			<path fill="none" stroke="#FFFFFF" stroke-width="0.45" stroke-linecap="round" stroke-linejoin="round" stroke-miterlimit="10" d="
			M59.3,63c0,2.3-1.9,4.2-4.3,4.1c-2.3,0-4.2-1.9-4.1-4.3c0-2.3,4.3-7.6,4.3-7.6S59.4,60.7,59.3,63z"/>
	</g>
</g>
</svg>
