<?xml version="1.0" encoding="utf-8"?>
<!-- Generator: Adobe Illustrator 23.1.0, SVG Export Plug-In . SVG Version: 6.00 Build 0)  -->
<svg version="1.1" id="Capa_1" xmlns="http://www.w3.org/2000/svg" xmlns:xlink="http://www.w3.org/1999/xlink" x="0px" y="0px"
	 viewBox="0 0 124.5 121.1" enable-background="new 0 0 124.5 121.1" xml:space="preserve">
<g>
	<path fill="#E8C984" d="M113.8,45C107.1,21.7,84.3,4,59.6,6.9c-0.1-0.2-0.3-0.2-0.6-0.2C36.3,9,18,25.4,11.2,46.8
		c-0.8,2.7-1.5,5.4-2,8.2C9,55,8.9,55.3,9.1,55.5c-0.2,1-0.3,2-0.4,3c-0.1,0.1-0.1,0.2,0,0.3c-0.9,7.3-0.4,14.8,1.6,21.8
		c0.8,2.9,2,5.6,3.4,8.1c0,0.2,0.1,0.4,0.3,0.5c3.8,6.5,9.4,11.7,16,16c9.8,6.4,20.5,10.7,32.4,10.6c1.3,0,2.6-0.1,3.9-0.2
		c0.2,0.2,0.7,0.2,0.8-0.1c8.9-0.9,17.7-4,25.3-8.7c9.9-6.2,17-14.6,20.6-25.7C116.6,69.5,117.1,56.8,113.8,45z"/>
	
		<path fill="none" stroke="#FFFFFF" stroke-width="0.9" stroke-linecap="round" stroke-miterlimit="10" stroke-dasharray="5.4,9" d="
		M111.2,45.8c-6.3-22.1-27.9-39-51.5-36.2c-0.1-0.1-0.3-0.2-0.6-0.2c-21.5,2.3-39,17.8-45.4,38.1c-0.8,2.5-1.4,5.1-1.9,7.8
		c-0.2,0.1-0.2,0.4-0.1,0.5c-0.2,0.9-0.3,1.9-0.4,2.8c-0.1,0.1-0.1,0.2,0,0.3c-0.8,6.9-0.4,14,1.5,20.7c0.8,2.7,1.9,5.3,3.2,7.7
		c0,0.2,0.1,0.4,0.3,0.4c3.6,6.2,8.9,11.2,15.2,15.2C40.8,109,51,113.2,62.3,113c1.2,0,2.5-0.1,3.7-0.2c0.2,0.2,0.6,0.2,0.8-0.1
		c8.5-0.8,16.8-3.8,24-8.3c9.4-5.9,16.2-13.9,19.5-24.4C113.8,69,114.4,57,111.2,45.8z"/>
	<g>
		
			<path fill="none" stroke="#FFFFFF" stroke-width="2.7" stroke-linecap="round" stroke-linejoin="round" stroke-miterlimit="10" d="
			M62.9,54.8c0,0,8.1-24.5-19.3-23.5c0,0-26.9,0.8-18.9,23.5c0,0,1.9,9.9,18.9,8.8C43.6,63.6,59.7,64.7,62.9,54.8z"/>
		
			<path fill="none" stroke="#FFFFFF" stroke-width="0.45" stroke-linecap="round" stroke-linejoin="round" stroke-miterlimit="10" d="
			M28.5,43.4c0,0,9.1-11.4,21.8-6.8"/>
		
			<path fill="none" stroke="#FFFFFF" stroke-width="2.7" stroke-linecap="round" stroke-linejoin="round" stroke-miterlimit="10" d="
			M94.1,69c0,0,19-11.4,0.6-26.2c0,0-18-14.6-25.5,4.7c0,0-4.3,7.5,7.3,16.3C76.6,63.9,86.5,73.7,94.1,69z"/>
		
			<path fill="none" stroke="#FFFFFF" stroke-width="0.45" stroke-linecap="round" stroke-linejoin="round" stroke-miterlimit="10" d="
			M78.1,42.3c0,0,12.3-2.3,18,7.8"/>
		
			<path fill="none" stroke="#FFFFFF" stroke-width="2.7" stroke-linecap="round" stroke-linejoin="round" stroke-miterlimit="10" d="
			M76.7,87.4c0,0,7.4-20.9-16.2-20.6c0,0-23.1,0.3-16.7,19.9c0,0,1.5,8.5,16.1,7.9C59.9,94.7,73.8,95.8,76.7,87.4z"/>
		
			<path fill="none" stroke="#FFFFFF" stroke-width="0.45" stroke-linecap="round" stroke-linejoin="round" stroke-miterlimit="10" d="
			M47.3,77.1c0,0,8-9.7,18.8-5.5"/>
	</g>
</g>
</svg>
