<?xml version="1.0" encoding="utf-8"?>
<!-- Generator: Adobe Illustrator 23.1.0, SVG Export Plug-In . SVG Version: 6.00 Build 0)  -->
<svg version="1.1" id="Capa_1" xmlns="http://www.w3.org/2000/svg" xmlns:xlink="http://www.w3.org/1999/xlink" x="0px" y="0px"
	 viewBox="0 0 124.5 121.1" enable-background="new 0 0 124.5 121.1" xml:space="preserve">
<g>
	<path fill="#F18669" d="M113.7,44.8C106.9,21.6,84.1,3.9,59.3,6.9c-0.1-0.2-0.3-0.2-0.6-0.2C36.1,9.2,17.8,25.6,11.1,47
		c-0.8,2.7-1.5,5.4-2,8.2c-0.2,0.1-0.2,0.4-0.1,0.5c-0.2,1-0.3,2-0.4,3c-0.1,0.1-0.1,0.2,0,0.3c-0.8,7.3-0.4,14.8,1.7,21.8
		c0.9,2.9,2,5.6,3.5,8.1c0,0.2,0.1,0.4,0.3,0.5c3.8,6.5,9.5,11.7,16.1,16c9.8,6.3,20.6,10.7,32.4,10.5c1.3,0,2.6-0.1,3.9-0.2
		c0.2,0.2,0.7,0.2,0.8-0.1c8.9-0.9,17.7-4,25.2-8.8c9.9-6.3,16.9-14.7,20.5-25.8C116.6,69.2,117.1,56.5,113.7,44.8z"/>
	
		<path fill="none" stroke="#FFFFFF" stroke-width="0.9" stroke-linecap="round" stroke-miterlimit="10" stroke-dasharray="5.4,9" d="
		M111.1,45.6C104.7,23.5,83,6.7,59.5,9.6c-0.1-0.1-0.3-0.2-0.6-0.2c-21.5,2.4-38.9,18-45.2,38.3c-0.8,2.5-1.4,5.1-1.9,7.8
		c-0.2,0.1-0.2,0.4-0.1,0.5c-0.2,0.9-0.3,1.9-0.4,2.8c-0.1,0.1-0.1,0.2,0,0.3c-0.8,6.9-0.4,14,1.6,20.7c0.8,2.7,1.9,5.3,3.3,7.6
		c0,0.2,0.1,0.4,0.3,0.4c3.6,6.2,9,11.1,15.3,15.2c9.3,6,19.5,10.1,30.8,9.9c1.2,0,2.5-0.1,3.7-0.2c0.2,0.2,0.6,0.2,0.8-0.1
		c8.5-0.9,16.8-3.8,24-8.4c9.4-5.9,16.1-13.9,19.4-24.5C113.9,68.8,114.3,56.8,111.1,45.6z"/>
	<g>
		<path fill="none" stroke="#FFFFFF" stroke-width="2.7" stroke-miterlimit="10" d="M78.9,83.8c0-0.7,3.9-3.5,4.3-4
			c4.5-5.3,11.9-12.4,13.7-22c0,0,1.5-4,0-9.2c-1.5-5.1-5-7.4-5-7.4c-0.7-1.4-0.7-2.7-3.1-4.8c-2.3-2-5.5-2.9-5.5-2.9
			c-1.9-1.4-1.6-3.1-6.3-4.3c-4.1-1-8.9-0.2-8.9-0.2c-1.9-0.9-2.8-1.8-6.3-1.8c-3.6,0-6.2,1.8-6.2,1.8c-3-0.3-4.9-0.8-8.4,0.2
			c-4.7,1.4-6.8,4.9-6.8,4.9c-2.3,0-3.5,0.5-5.1,1.4c-3,1.8-3.5,5.7-3.5,5.7c-3,1.9-5.4,4.2-6.1,6.8c-1.5,4.9,1.2,9.8,1.2,9.8
			c1.8,9.6,9.8,17,14.3,22.3c0.4,0.5,3.8,3,3.8,3.7c-0.2,3.8,0.2,8.3,3.4,8.8h6.4c0.3,0,0.6,0.1,0.8,0.3c2.7,1.8,4.9,2.7,5.9,3
			c0.3,0.1,0.7,0.1,1,0c0.9-0.3,3.1-1.2,5.9-3c0.3-0.2,0.5-0.3,0.8-0.3h6.4C78.7,92.1,79.1,87.6,78.9,83.8z"/>
		
			<line fill="none" stroke="#FFFFFF" stroke-width="0.45" stroke-linecap="round" stroke-linejoin="round" stroke-miterlimit="10" x1="59.9" y1="73.6" x2="55.6" y2="29"/>
		
			<line fill="none" stroke="#FFFFFF" stroke-width="0.45" stroke-linecap="round" stroke-linejoin="round" stroke-miterlimit="10" x1="40.5" y1="34.1" x2="55.6" y2="74.9"/>
		
			<line fill="none" stroke="#FFFFFF" stroke-width="0.45" stroke-linecap="round" stroke-linejoin="round" stroke-miterlimit="10" x1="31.9" y1="41.2" x2="50.8" y2="78.5"/>
		
			<line fill="none" stroke="#FFFFFF" stroke-width="0.45" stroke-linecap="round" stroke-linejoin="round" stroke-miterlimit="10" x1="68.2" y1="29" x2="65.3" y2="73.6"/>
		
			<line fill="none" stroke="#FFFFFF" stroke-width="0.45" stroke-linecap="round" stroke-linejoin="round" stroke-miterlimit="10" x1="83.3" y1="33.4" x2="70.3" y2="75"/>
		
			<line fill="none" stroke="#FFFFFF" stroke-width="0.45" stroke-linecap="round" stroke-linejoin="round" stroke-miterlimit="10" x1="91.9" y1="41.2" x2="73" y2="78.5"/>
	</g>
</g>
</svg>
