<?xml version="1.0" encoding="utf-8"?>
<!-- Generator: Adobe Illustrator 23.1.0, SVG Export Plug-In . SVG Version: 6.00 Build 0)  -->
<svg version="1.1" id="Capa_1" xmlns="http://www.w3.org/2000/svg" xmlns:xlink="http://www.w3.org/1999/xlink" x="0px" y="0px"
	 viewBox="0 0 124.5 121.1" enable-background="new 0 0 124.5 121.1" xml:space="preserve">
<g>
	<path fill="#82CEEC" d="M113.8,45C107.1,21.7,84.3,4,59.6,6.9c-0.1-0.2-0.3-0.2-0.6-0.2C36.3,9,18,25.4,11.2,46.8
		c-0.8,2.7-1.5,5.4-2,8.2C9,55,8.9,55.3,9.1,55.5c-0.2,1-0.3,2-0.4,3c-0.1,0.1-0.1,0.2,0,0.3c-0.9,7.3-0.4,14.8,1.6,21.8
		c0.8,2.9,2,5.6,3.4,8.1c0,0.2,0.1,0.4,0.3,0.5c3.8,6.5,9.4,11.7,16,16c9.8,6.4,20.5,10.7,32.4,10.6c1.3,0,2.6-0.1,3.9-0.2
		c0.2,0.2,0.7,0.2,0.8-0.1c8.9-0.9,17.7-4,25.3-8.7c9.9-6.2,17-14.6,20.6-25.7C116.6,69.5,117.1,56.8,113.8,45z"/>
	
		<path fill="none" stroke="#FFFFFF" stroke-width="0.9" stroke-linecap="round" stroke-miterlimit="10" stroke-dasharray="5.4,9" d="
		M111.2,45.8c-6.3-22.1-27.9-39-51.5-36.2c-0.1-0.1-0.3-0.2-0.6-0.2c-21.5,2.3-39,17.8-45.4,38.1c-0.8,2.5-1.4,5.1-1.9,7.8
		c-0.2,0.1-0.2,0.4-0.1,0.5c-0.2,0.9-0.3,1.9-0.4,2.8c-0.1,0.1-0.1,0.2,0,0.3c-0.8,6.9-0.4,14,1.5,20.7c0.8,2.7,1.9,5.3,3.2,7.7
		c0,0.2,0.1,0.4,0.3,0.4c3.6,6.2,8.9,11.2,15.2,15.2C40.8,109,51,113.2,62.3,113c1.2,0,2.5-0.1,3.7-0.2c0.2,0.2,0.6,0.2,0.8-0.1
		c8.5-0.8,16.8-3.8,24-8.3c9.4-5.9,16.2-13.9,19.5-24.4C113.8,69,114.4,57,111.2,45.8z"/>
	<g>
		
			<path fill="none" stroke="#FFFFFF" stroke-width="2.7" stroke-linecap="round" stroke-linejoin="round" stroke-miterlimit="10" d="
			M50.1,41.5c0,0,5.2-8.5,15.7-3.9c0,0-4.3,1.9-5.3,3.9"/>
		
			<path fill="none" stroke="#FFFFFF" stroke-width="2.7" stroke-linecap="round" stroke-linejoin="round" stroke-miterlimit="10" d="
			M50.1,81.2c1.9,2.3,7.3,7.2,15.7,3.5c0,0-3.2-1.7-4.9-3.5"/>
		
			<path fill="none" stroke="#FFFFFF" stroke-width="2.7" stroke-linecap="round" stroke-linejoin="round" stroke-miterlimit="10" d="
			M31.7,49.3c0,0-13.6,8.3-4.5,19.4c0,0,13.3,15,32.3,12.8c0,0,12.6-1.9,21-12l6.5-8.3c0,0-5-7.5-9.6-11.2c0,0-11.3-11.5-28.7-8.5
			C48.9,41.5,40.7,42.7,31.7,49.3z"/>
		
			<path fill="none" stroke="#FFFFFF" stroke-width="2.7" stroke-linecap="round" stroke-linejoin="round" stroke-miterlimit="10" d="
			M100,42.6c0,0-17.7,3.2-12.6,18.6C87.4,61.2,101.6,60.9,100,42.6z"/>
		
			<path fill="none" stroke="#FFFFFF" stroke-width="2.7" stroke-linecap="round" stroke-linejoin="round" stroke-miterlimit="10" d="
			M100,79.8c0,0-17.7-3.2-12.6-18.6C87.4,61.2,101.6,61.5,100,79.8z"/>
		
			<path fill="none" stroke="#FFFFFF" stroke-width="0.45" stroke-linecap="round" stroke-linejoin="round" stroke-miterlimit="10" d="
			M44.8,42.6c0,0,12.7,11.8-1.1,30.7"/>
		
			<path fill="none" stroke="#FFFFFF" stroke-width="0.45" stroke-linecap="round" stroke-linejoin="round" stroke-miterlimit="10" d="
			M52.8,56.8c0,0,3.5-3.1,7.5-2.1c0,0,5.7,1-1.2,7.6c0,0,2.8,6-2.6,6.2c0,0-3.7-0.1-5.7-0.8"/>
		<circle fill="#FFFFFF" cx="38" cy="56.8" r="2.3"/>
		
			<path fill="none" stroke="#FFFFFF" stroke-width="0.45" stroke-linecap="round" stroke-linejoin="round" stroke-miterlimit="10" d="
			M82.5,62.7c0,0-4,7.9-16.1,14.4"/>
	</g>
</g>
</svg>
