<?xml version="1.0" encoding="utf-8"?>
<!-- Generator: Adobe Illustrator 23.1.0, SVG Export Plug-In . SVG Version: 6.00 Build 0)  -->
<svg version="1.1" id="Capa_1" xmlns="http://www.w3.org/2000/svg" xmlns:xlink="http://www.w3.org/1999/xlink" x="0px" y="0px"
	 viewBox="0 0 124.5 121.1" enable-background="new 0 0 124.5 121.1" xml:space="preserve">
<g>
	<path fill="#8AC164" d="M113.7,44.7C106.9,21.5,84,3.8,59.2,6.9c-0.1-0.2-0.3-0.2-0.6-0.2C36,9.2,17.7,25.7,11.1,47.1
		c-0.8,2.7-1.5,5.4-2,8.2c-0.2,0.1-0.2,0.4-0.1,0.5c-0.2,1-0.3,2-0.4,3c-0.1,0.1-0.1,0.2,0,0.3C7.8,66.5,8.3,74,10.4,81
		c0.9,2.9,2,5.6,3.5,8c0,0.2,0.1,0.4,0.3,0.5c3.9,6.5,9.5,11.7,16.1,15.9c9.8,6.3,20.6,10.6,32.4,10.4c1.3,0,2.6-0.1,3.9-0.2
		c0.2,0.2,0.7,0.2,0.8-0.1c8.9-0.9,17.7-4.1,25.2-8.9c9.8-6.3,16.9-14.7,20.4-25.8C116.6,69.1,117.1,56.4,113.7,44.7z"/>
	
		<path fill="none" stroke="#FFFFFF" stroke-width="0.9" stroke-linecap="round" stroke-miterlimit="10" stroke-dasharray="5.4,9" d="
		M111.1,45.5C104.6,23.5,82.9,6.7,59.4,9.6c-0.1-0.1-0.3-0.2-0.6-0.2c-21.5,2.4-38.9,18.1-45.1,38.4c-0.8,2.5-1.4,5.1-1.9,7.8
		c-0.2,0.1-0.2,0.4-0.1,0.5c-0.2,0.9-0.3,1.9-0.4,2.8c-0.1,0.1-0.1,0.2,0,0.3c-0.8,6.9-0.3,14,1.7,20.7c0.8,2.7,1.9,5.3,3.3,7.6
		c0,0.2,0.1,0.4,0.3,0.4c3.7,6.2,9,11.1,15.3,15.1c9.3,6,19.6,10.1,30.8,9.9c1.2,0,2.5-0.1,3.7-0.2c0.2,0.2,0.6,0.2,0.8-0.1
		c8.5-0.9,16.8-3.9,24-8.4c9.4-6,16.1-14,19.4-24.6C113.9,68.7,114.3,56.7,111.1,45.5z"/>
	<g>
		
			<line fill="none" stroke="#FFFFFF" stroke-width="1.5949" stroke-linecap="round" stroke-linejoin="round" stroke-miterlimit="10" x1="56.5" y1="46.8" x2="57.5" y2="46.9"/>
		
			<path fill="none" stroke="#FFFFFF" stroke-width="2.7" stroke-linecap="round" stroke-linejoin="round" stroke-miterlimit="10" d="
			M54.7,92.7c-0.7,0.1-1.5,0.2-2.5,0.1c0,0-5.8,0-6.5-5.9l4.7-34.6"/>
		
			<path fill="none" stroke="#FFFFFF" stroke-width="2.7" stroke-linecap="round" stroke-linejoin="round" stroke-miterlimit="10" d="
			M68.2,92.7c0.7,0.1,1.6,0.2,2.6,0.1c0,0,5.8,0,6.5-5.9L72.7,53"/>
		
			<path fill="none" stroke="#FFFFFF" stroke-width="2.7" stroke-linecap="round" stroke-linejoin="round" stroke-miterlimit="10" d="
			M71.8,34.5c0.8,1.1,1.7,2.1,2.5,3.2c1.2-1,2.6-1.9,4.1-2.6c0.3-0.1,0.7-0.3,1-0.1c0.3,0.2,0.4,0.6,0.5,1c0.1,1.5,0.3,3,0.4,4.5
			c1.2-0.2,2.4-0.4,3.5,0.1c1.1,0.4,2.3,0.9,1.8,2c-0.2,0.3-0.8,1.5-1.1,1.7c-0.8,0.8-1.5,1.5-2.3,2.3"/>
		
			<path fill="none" stroke="#FFFFFF" stroke-width="2.7" stroke-linecap="round" stroke-linejoin="round" stroke-miterlimit="10" d="
			M84.2,48.1c-1.9,1.9-4.4,3.3-7,3.8c-2.7,0.5-5.6-0.1-7.6-1.9c-1-0.9-1.8-2-2.5-3.2c-0.3-0.4-0.5-0.9-0.8-1.3"/>
		
			<path fill="none" stroke="#FFFFFF" stroke-width="2.7" stroke-linecap="round" stroke-linejoin="round" stroke-miterlimit="10" d="
			M50.7,36.5c-0.5,0.5-1,0.9-1.5,1.4c-1.1-1.2-2.3-2.3-3.6-3.2c-0.3-0.2-0.6-0.4-0.9-0.3c-0.4,0.1-0.5,0.6-0.6,0.9
			c-0.4,1.5-0.7,2.9-1.1,4.4c-1.1-0.4-2.3-0.8-3.5-0.5S37,39.9,37.3,41c0.1,0.4,0.6,1.6,0.8,1.9c0.6,0.9,1.3,1.7,1.9,2.6"/>
		
			<path fill="none" stroke="#FFFFFF" stroke-width="2.7" stroke-linecap="round" stroke-linejoin="round" stroke-miterlimit="10" d="
			M37.8,46.6c1.6,2.1,3.8,4,6.3,4.8c2.5,0.9,5.5,0.8,7.8-0.7c1.2-0.7,2.1-1.7,3-2.8c0.6-0.7,1.1-1.4,1.6-2.2"/>
		
			<path fill="none" stroke="#FFFFFF" stroke-width="2.7" stroke-linecap="round" stroke-linejoin="round" stroke-miterlimit="10" d="
			M58,44.5h6.3l4.1,43.8c0,0,1.3,7.6-6.8,7.6c0,0-5.8,0.4-6.8-6.2L58,44.5z"/>
		
			<path fill="none" stroke="#FFFFFF" stroke-width="2.7" stroke-linecap="round" stroke-linejoin="round" stroke-miterlimit="10" d="
			M51.2,35.4c0.6,2.6,1.8,5.2,3.7,7c1.9,1.9,4.7,3,7.4,2.7c1.4-0.2,2.6-0.7,3.9-1.3c1.3-0.6,2.6-1.3,3.6-2.3c1.1-1,1.9-2.3,2-3.7
			c0-0.3,0-0.6-0.1-0.8c-0.5-0.5-1.6,0.1-1.9-0.5c0.5-1.3,0.9-2.7,1-4.1c0.1-0.7,0-1.5-0.7-1.7c-0.3-0.1-0.7,0-1.1,0.1
			c-1.3,0.4-2.6,0.9-3.9,1.3c-0.5-1.5-1.1-3-2-4.4c-0.2-0.3-0.4-0.6-0.7-0.6c-0.4,0-0.7,0.3-0.9,0.6c-0.9,1.2-1.9,2.4-2.8,3.6
			c-0.9-0.8-1.8-1.6-3-1.9s-2.5-0.5-2.6,0.6c-0.1,0.4-0.1,1.7,0,2c0.2,1,0.4,2.1,0.6,3.1"/>
		
			<path fill="none" stroke="#FFFFFF" stroke-width="0.45" stroke-linecap="round" stroke-linejoin="round" stroke-miterlimit="10" d="
			M60,52c0,0-4.3,41.1-0.8,41.5"/>
		
			<path fill="none" stroke="#FFFFFF" stroke-width="0.45" stroke-linecap="round" stroke-linejoin="round" stroke-miterlimit="10" d="
			M53.2,53c0,0-5.9,35.3-3.5,36.2"/>
		
			<path fill="none" stroke="#FFFFFF" stroke-width="0.45" stroke-linecap="round" stroke-linejoin="round" stroke-miterlimit="10" d="
			M70,53c0,0,5.9,35.3,3.5,36.2"/>
	</g>
</g>
</svg>
