<?xml version="1.0" encoding="utf-8"?>
<!-- Generator: Adobe Illustrator 23.1.0, SVG Export Plug-In . SVG Version: 6.00 Build 0)  -->
<svg version="1.1" id="Capa_1" xmlns="http://www.w3.org/2000/svg" xmlns:xlink="http://www.w3.org/1999/xlink" x="0px" y="0px"
	 viewBox="0 0 124.5 121.1" enable-background="new 0 0 124.5 121.1" xml:space="preserve">
<g>
	<path fill="#E9A035" d="M113.7,44.9c-6.7-23.2-29.5-41-54.3-38c-0.1-0.2-0.3-0.2-0.6-0.2c-22.6,2.5-41,18.9-47.7,40.3
		c-0.8,2.7-1.5,5.4-2,8.2c-0.2,0.1-0.2,0.4-0.1,0.5c-0.2,1-0.3,2-0.4,3c-0.1,0.1-0.1,0.2,0,0.3c-0.8,7.3-0.4,14.8,1.7,21.8
		c0.9,2.9,2,5.6,3.4,8.1c0,0.2,0.1,0.4,0.3,0.5c3.8,6.5,9.4,11.7,16,16c9.8,6.3,20.6,10.7,32.4,10.5c1.3,0,2.6-0.1,3.9-0.2
		c0.2,0.2,0.7,0.2,0.8-0.1c8.9-0.9,17.7-4,25.3-8.8c9.9-6.2,17-14.6,20.5-25.8C116.6,69.3,117.1,56.6,113.7,44.9z"/>
	
		<path fill="none" stroke="#FFFFFF" stroke-width="0.9" stroke-linecap="round" stroke-miterlimit="10" stroke-dasharray="5.4,9" d="
		M111.1,45.7C104.8,23.6,83.1,6.8,59.5,9.6c-0.1-0.1-0.3-0.2-0.6-0.2c-21.5,2.4-38.9,18-45.3,38.3c-0.8,2.5-1.4,5.1-1.9,7.8
		c-0.2,0.1-0.2,0.4-0.1,0.5c-0.2,0.9-0.3,1.9-0.4,2.8c-0.1,0.1-0.1,0.2,0,0.3c-0.8,6.9-0.4,14,1.6,20.7c0.8,2.7,1.9,5.3,3.3,7.7
		c0,0.2,0.1,0.4,0.3,0.4c3.6,6.2,9,11.1,15.2,15.2c9.3,6,19.5,10.1,30.8,10c1.2,0,2.5-0.1,3.7-0.2c0.2,0.2,0.6,0.2,0.8-0.1
		c8.5-0.9,16.8-3.8,24-8.3c9.4-5.9,16.1-13.9,19.5-24.5C113.8,68.9,114.4,56.8,111.1,45.7z"/>
	<g>
		
			<path fill="none" stroke="#FFFFFF" stroke-width="2.7" stroke-linecap="round" stroke-linejoin="round" stroke-miterlimit="10" d="
			M69.5,43.1h-0.6c0.1-0.2,0.2-0.5,0.2-0.8v-2.7c0-1-0.8-1.8-1.8-1.8h-2c-0.2,0-0.3-0.1-0.4-0.3l-3.1-10.7c-0.1-0.4-0.7-0.4-0.8,0
			l-3.1,11h-0.2h-2.2c-1,0-1.8,0.8-1.8,1.8v2.7c0,0.3,0.1,0.6,0.2,0.8h-0.6c-2.1,0-3.8,1.7-3.8,3.8v46.1c0,2.1,1.7,3.8,3.8,3.8h16.2
			c2.1,0,3.8-1.7,3.8-3.8V46.8C73.3,44.8,71.6,43.1,69.5,43.1z"/>
		
			<path fill="none" stroke="#FFFFFF" stroke-width="0.45" stroke-linecap="round" stroke-linejoin="round" stroke-miterlimit="10" d="
			M55.7,43.5c0,0,5.3,1.6,12.6-0.4"/>
		
			<path fill="none" stroke="#FFFFFF" stroke-width="0.45" stroke-linecap="round" stroke-linejoin="round" stroke-miterlimit="10" d="
			M59,38.2c0,0,3.3,0.5,5.4-0.4"/>
		
			<path fill="none" stroke="#FFFFFF" stroke-width="0.45" stroke-linecap="round" stroke-linejoin="round" stroke-miterlimit="10" d="
			M55.6,46.8c0,0-3.2-0.2-3.2,5.1v19.9"/>
	</g>
</g>
</svg>
