<?xml version="1.0" encoding="utf-8"?>
<!-- Generator: Adobe Illustrator 23.1.0, SVG Export Plug-In . SVG Version: 6.00 Build 0)  -->
<svg version="1.1" id="Capa_1" xmlns="http://www.w3.org/2000/svg" xmlns:xlink="http://www.w3.org/1999/xlink" x="0px" y="0px"
	 viewBox="0 0 124.5 121.1" enable-background="new 0 0 124.5 121.1" xml:space="preserve">
<g>
	<path fill="#BC8E56" d="M113.9,45.3C107.4,22,84.8,4.1,60,6.8c-0.1-0.2-0.3-0.2-0.6-0.2C36.7,8.8,18.2,25,11.3,46.3
		c-0.9,2.7-1.6,5.4-2.1,8.2C9,54.6,9,54.9,9.1,55c-0.2,1-0.3,2-0.5,3c-0.1,0.1-0.1,0.2,0,0.3c-0.9,7.3-0.6,14.8,1.5,21.8
		c0.8,2.9,2,5.6,3.4,8.1c0,0.2,0.1,0.4,0.3,0.5c3.8,6.6,9.3,11.8,15.9,16.2c9.7,6.4,20.4,10.9,32.3,10.9c1.3,0,2.6-0.1,3.9-0.2
		c0.2,0.2,0.7,0.2,0.8-0.1c9-0.8,17.7-3.8,25.3-8.5c9.9-6.1,17.1-14.5,20.8-25.6C116.5,69.8,117.2,57.1,113.9,45.3z"/>
	
		<path fill="none" stroke="#FFFFFF" stroke-width="0.9" stroke-linecap="round" stroke-miterlimit="10" stroke-dasharray="5.4,9" d="
		M111.3,46.1C105.1,24,83.6,6.9,60.1,9.5c-0.1-0.1-0.3-0.2-0.6-0.2C38,11.4,20.4,26.8,13.9,47.1c-0.8,2.5-1.5,5.1-2,7.8
		c-0.2,0.1-0.2,0.4-0.1,0.5c-0.2,0.9-0.3,1.9-0.4,2.8c-0.1,0.1-0.1,0.2,0,0.3c-0.9,6.9-0.5,14,1.4,20.7c0.8,2.8,1.9,5.3,3.2,7.7
		c0,0.2,0.1,0.4,0.3,0.4c3.6,6.2,8.8,11.2,15.1,15.3c9.3,6.1,19.4,10.4,30.7,10.3c1.2,0,2.5-0.1,3.7-0.1c0.2,0.2,0.6,0.2,0.8-0.1
		c8.5-0.8,16.8-3.6,24.1-8.1c9.4-5.8,16.3-13.7,19.7-24.3C113.8,69.4,114.4,57.3,111.3,46.1z"/>
	<g>
		
			<path fill="none" stroke="#FFFFFF" stroke-width="2.7" stroke-linecap="round" stroke-linejoin="round" stroke-miterlimit="10" d="
			M76.9,50.5c0.4,6.8-4.8,12.7-11.6,13.1c-6.8,0.4-12.7-4.8-13.1-11.6s4.1-24.6,10.9-25C70,26.6,76.5,43.7,76.9,50.5z"/>
		
			<path fill="none" stroke="#FFFFFF" stroke-width="0.45" stroke-linecap="round" stroke-linejoin="round" stroke-miterlimit="10" d="
			M63.3,33.1c0.9,8.3,1.7,16.5,2.5,24.8"/>
		
			<path fill="none" stroke="#FFFFFF" stroke-width="2.7" stroke-linecap="round" stroke-linejoin="round" stroke-miterlimit="10" d="
			M99.2,86.6c-2.6,6.3-9.9,9.3-16.2,6.6c-6.3-2.6-9.3-9.9-6.6-16.2s14.5-20.3,20.8-17.6C103.5,62.1,101.9,80.3,99.2,86.6z"/>
		
			<path fill="none" stroke="#FFFFFF" stroke-width="0.45" stroke-linecap="round" stroke-linejoin="round" stroke-miterlimit="10" d="
			M94.6,65c-2.8,7.8-5.7,15.6-8.7,23.4"/>
		
			<path fill="none" stroke="#FFFFFF" stroke-width="2.7" stroke-linecap="round" stroke-linejoin="round" stroke-miterlimit="10" d="
			M22.6,76.7c-3-6.1-0.4-13.5,5.7-16.5s13.5-0.4,16.5,5.7c3,6.1,5.7,24.2-0.5,27.2S25.6,82.8,22.6,76.7z"/>
		
			<path fill="none" stroke="#FFFFFF" stroke-width="0.45" stroke-linecap="round" stroke-linejoin="round" stroke-miterlimit="10" d="
			M41.9,87.4c-4-7.3-8-14.6-11.8-21.9"/>
	</g>
</g>
</svg>
