<?xml version="1.0" encoding="utf-8"?>
<!-- Generator: Adobe Illustrator 23.1.0, SVG Export Plug-In . SVG Version: 6.00 Build 0)  -->
<svg version="1.1" id="Capa_1" xmlns="http://www.w3.org/2000/svg" xmlns:xlink="http://www.w3.org/1999/xlink" x="0px" y="0px"
	 viewBox="0 0 124.5 121.1" enable-background="new 0 0 124.5 121.1" xml:space="preserve">
<g>
	<path fill="#E8C984" d="M113.7,44.9c-6.7-23.2-29.5-41-54.3-38c-0.1-0.2-0.3-0.2-0.6-0.2c-22.6,2.5-41,18.9-47.7,40.3
		c-0.8,2.7-1.5,5.4-2,8.2c-0.2,0.1-0.2,0.4-0.1,0.5c-0.2,1-0.3,2-0.4,3c-0.1,0.1-0.1,0.2,0,0.3c-0.8,7.3-0.4,14.8,1.7,21.8
		c0.9,2.9,2,5.6,3.4,8.1c0,0.2,0.1,0.4,0.3,0.5c3.8,6.5,9.4,11.7,16,16c9.8,6.3,20.6,10.7,32.4,10.5c1.3,0,2.6-0.1,3.9-0.2
		c0.2,0.2,0.7,0.2,0.8-0.1c8.9-0.9,17.7-4,25.3-8.8c9.9-6.2,17-14.6,20.5-25.8C116.6,69.3,117.1,56.6,113.7,44.9z"/>
	
		<path fill="none" stroke="#FFFFFF" stroke-width="0.9" stroke-linecap="round" stroke-miterlimit="10" stroke-dasharray="5.4,9" d="
		M111.1,45.7C104.8,23.6,83.1,6.8,59.6,9.6c-0.1-0.1-0.3-0.2-0.6-0.2c-21.5,2.3-38.9,18-45.3,38.3c-0.8,2.5-1.4,5.1-1.9,7.8
		c-0.2,0.1-0.2,0.4-0.1,0.5c-0.2,0.9-0.3,1.9-0.4,2.8c-0.1,0.1-0.1,0.2,0,0.3c-0.8,6.9-0.4,14,1.6,20.7c0.8,2.7,1.9,5.3,3.3,7.7
		c0,0.2,0.1,0.4,0.3,0.4c3.6,6.2,9,11.1,15.2,15.2c9.3,6,19.5,10.1,30.8,10c1.2,0,2.5-0.1,3.7-0.2c0.2,0.2,0.6,0.2,0.8-0.1
		c8.5-0.9,16.8-3.8,24-8.3c9.4-5.9,16.1-13.9,19.5-24.5C113.8,68.9,114.4,56.8,111.1,45.7z"/>
	<g>
		
			<path fill="none" stroke="#FFFFFF" stroke-width="2.7" stroke-linecap="round" stroke-linejoin="round" stroke-miterlimit="10" d="
			M29.6,93.2c0,0,27,8.3,31.7-15.3c0,0,17-0.7,16.7-17c0,0,21.7,1.7,17-32c0,0-30.4-7-32.4,16c0,0-17-0.9-17.3,16.4
			C45.3,61.2,23.6,60.8,29.6,93.2z"/>
		
			<circle fill="none" stroke="#FFFFFF" stroke-width="0.45" stroke-linecap="round" stroke-linejoin="round" stroke-miterlimit="10" cx="78.1" cy="44.9" r="8.6"/>
		
			<circle fill="none" stroke="#FFFFFF" stroke-width="0.45" stroke-linecap="round" stroke-linejoin="round" stroke-miterlimit="10" cx="62.1" cy="61.2" r="8.6"/>
		
			<circle fill="none" stroke="#FFFFFF" stroke-width="0.45" stroke-linecap="round" stroke-linejoin="round" stroke-miterlimit="10" cx="44.9" cy="78.4" r="8.6"/>
		
			<path fill="none" stroke="#FFFFFF" stroke-width="0.45" stroke-linecap="round" stroke-linejoin="round" stroke-miterlimit="10" d="
			M43.3,85c0,0,6.1,1.7,8.1-5"/>
		
			<path fill="none" stroke="#FFFFFF" stroke-width="0.45" stroke-linecap="round" stroke-linejoin="round" stroke-miterlimit="10" d="
			M60.8,68c0,0,6.1,1.7,8.1-5"/>
		
			<path fill="none" stroke="#FFFFFF" stroke-width="0.45" stroke-linecap="round" stroke-linejoin="round" stroke-miterlimit="10" d="
			M76.7,51.5c0,0,6.1,1.7,8.1-5"/>
	</g>
</g>
</svg>
