<?xml version="1.0" encoding="utf-8"?>
<!-- Generator: Adobe Illustrator 23.1.0, SVG Export Plug-In . SVG Version: 6.00 Build 0)  -->
<svg version="1.1" id="Capa_1" xmlns="http://www.w3.org/2000/svg" xmlns:xlink="http://www.w3.org/1999/xlink" x="0px" y="0px"
	 viewBox="0 0 124.5 121.1" enable-background="new 0 0 124.5 121.1" xml:space="preserve">
<g>
	<path fill="#82CEEC" d="M113.9,45.5C107.6,22.1,85,4.1,60.2,6.7c-0.1-0.2-0.3-0.2-0.6-0.2C36.9,8.6,18.4,24.8,11.4,46.1
		c-0.9,2.7-1.6,5.4-2.1,8.2C9,54.3,9,54.6,9.2,54.8c-0.2,1-0.3,2-0.5,3c-0.1,0.1-0.1,0.2,0,0.3C7.7,65.4,8,72.8,10,79.9
		c0.8,2.9,1.9,5.6,3.3,8.1c0,0.2,0.1,0.4,0.3,0.5c3.7,6.6,9.3,11.9,15.8,16.2c9.7,6.5,20.4,11,32.2,11c1.3,0,2.6,0,3.9-0.1
		c0.2,0.3,0.7,0.2,0.8-0.1c9-0.8,17.7-3.8,25.4-8.4c10-6.1,17.2-14.4,20.9-25.5C116.5,70,117.2,57.3,113.9,45.5z"/>
	
		<path fill="none" stroke="#FFFFFF" stroke-width="0.9" stroke-linecap="round" stroke-miterlimit="10" stroke-dasharray="5.4,9" d="
		M111.3,46.2C105.3,24.1,83.8,6.9,60.3,9.4c-0.1-0.1-0.3-0.2-0.6-0.2c-21.5,2-39.2,17.4-45.8,37.6c-0.8,2.5-1.5,5.1-2,7.8
		c-0.2,0.1-0.2,0.4-0.1,0.5c-0.2,0.9-0.3,1.9-0.4,2.8c-0.1,0.1-0.1,0.2,0,0.3c-0.9,6.9-0.6,14,1.3,20.7c0.8,2.8,1.8,5.3,3.2,7.7
		c0,0.2,0.1,0.4,0.3,0.4c3.5,6.2,8.8,11.3,15,15.4c9.2,6.2,19.4,10.4,30.6,10.4c1.2,0,2.5,0,3.7-0.1c0.2,0.2,0.6,0.2,0.8-0.1
		c8.5-0.7,16.8-3.6,24.1-8c9.5-5.8,16.3-13.7,19.8-24.2C113.7,69.5,114.4,57.4,111.3,46.2z"/>
	<g>
		
			<line fill="none" stroke="#FFFFFF" stroke-width="0.9834" stroke-linecap="round" stroke-linejoin="round" stroke-miterlimit="10" x1="62.3" y1="53.9" x2="62.3" y2="46.3"/>
		
			<line fill="none" stroke="#FFFFFF" stroke-width="0.9834" stroke-linecap="round" stroke-linejoin="round" stroke-miterlimit="10" x1="44.8" y1="77.1" x2="49.5" y2="74.4"/>
		
			<line fill="none" stroke="#FFFFFF" stroke-width="0.9834" stroke-linecap="round" stroke-linejoin="round" stroke-miterlimit="10" x1="81.4" y1="78" x2="73.6" y2="73.4"/>
		
			<circle fill="none" stroke="#FFFFFF" stroke-width="2.7" stroke-linecap="round" stroke-linejoin="round" stroke-miterlimit="10" cx="62.3" cy="66.8" r="12.9"/>
		
			<circle fill="none" stroke="#FFFFFF" stroke-width="2.7" stroke-linecap="round" stroke-linejoin="round" stroke-miterlimit="10" cx="62.3" cy="36.8" r="9.1"/>
		
			<circle fill="none" stroke="#FFFFFF" stroke-width="2.7" stroke-linecap="round" stroke-linejoin="round" stroke-miterlimit="10" cx="89" cy="82.5" r="9.1"/>
		
			<circle fill="none" stroke="#FFFFFF" stroke-width="2.7" stroke-linecap="round" stroke-linejoin="round" stroke-miterlimit="10" cx="35.7" cy="82.5" r="9.1"/>
		
			<path fill="none" stroke="#FFFFFF" stroke-width="0.45" stroke-linecap="round" stroke-linejoin="round" stroke-miterlimit="10" d="
			M28.6,81.7c0,0-0.4,5.2,5.7,7.4"/>
		
			<path fill="none" stroke="#FFFFFF" stroke-width="0.45" stroke-linecap="round" stroke-linejoin="round" stroke-miterlimit="10" d="
			M82,81.7c0,0-0.4,5.2,5.7,7.4"/>
		
			<path fill="none" stroke="#FFFFFF" stroke-width="0.45" stroke-linecap="round" stroke-linejoin="round" stroke-miterlimit="10" d="
			M55.3,36c0,0-0.4,5.2,5.7,7.4"/>
		
			<path fill="none" stroke="#FFFFFF" stroke-width="0.45" stroke-linecap="round" stroke-linejoin="round" stroke-miterlimit="10" d="
			M51.9,66c0,0,0,8.5,7.7,11"/>
	</g>
</g>
</svg>
