<?xml version="1.0" encoding="utf-8"?>
<!-- Generator: Adobe Illustrator 23.1.0, SVG Export Plug-In . SVG Version: 6.00 Build 0)  -->
<svg version="1.1" id="Capa_1" xmlns="http://www.w3.org/2000/svg" xmlns:xlink="http://www.w3.org/1999/xlink" x="0px" y="0px"
	 viewBox="0 0 124.5 121.1" enable-background="new 0 0 124.5 121.1" xml:space="preserve">
<g>
	<path fill="#EFAA4B" d="M113.6,44.7C106.8,21.4,83.9,3.8,59.2,6.9c-0.1-0.2-0.3-0.2-0.6-0.2C36,9.3,17.7,25.8,11.1,47.2
		c-0.8,2.7-1.5,5.4-2,8.2c-0.2,0.1-0.2,0.4-0.1,0.5c-0.2,1-0.3,2-0.4,3c-0.1,0.1-0.1,0.2,0,0.3C7.8,66.5,8.3,74,10.4,81
		c0.9,2.9,2,5.6,3.5,8c0,0.2,0.1,0.4,0.3,0.5c3.9,6.5,9.5,11.7,16.1,15.9c9.8,6.3,20.6,10.6,32.4,10.4c1.3,0,2.6-0.1,3.9-0.2
		c0.2,0.2,0.7,0.2,0.8-0.1c8.9-0.9,17.7-4.1,25.2-8.9c9.8-6.3,16.9-14.7,20.4-25.9C116.6,69.1,117.1,56.4,113.6,44.7z"/>
	
		<path fill="none" stroke="#FFFFFF" stroke-width="0.9" stroke-linecap="round" stroke-miterlimit="10" stroke-dasharray="5.4,9" d="
		M111.1,45.5c-6.5-22-28.2-38.8-51.7-35.9c-0.1-0.1-0.3-0.2-0.6-0.2c-21.5,2.4-38.8,18.1-45.1,38.5c-0.8,2.5-1.4,5.1-1.9,7.8
		c-0.2,0.1-0.2,0.4-0.1,0.5c-0.2,0.9-0.3,1.9-0.4,2.8c-0.1,0.1-0.1,0.2,0,0.3C10.5,66.3,11,73.4,13,80c0.8,2.7,1.9,5.3,3.3,7.6
		c0,0.2,0.1,0.4,0.3,0.4c3.7,6.2,9,11.1,15.3,15.1c9.3,6,19.6,10.1,30.8,9.9c1.2,0,2.5-0.1,3.7-0.2c0.2,0.2,0.6,0.2,0.8-0.1
		c8.5-0.9,16.8-3.9,24-8.5c9.3-6,16.1-14,19.4-24.6C113.9,68.7,114.3,56.6,111.1,45.5z"/>
	<g>
		
			<path fill="none" stroke="#FFFFFF" stroke-width="2.7" stroke-linecap="round" stroke-linejoin="round" stroke-miterlimit="10" d="
			M86.6,70.4c0,13.9-11.3,25.2-25.2,25.2S36.3,84.3,36.3,70.4s11.3-42.8,25.2-42.8S86.6,56.5,86.6,70.4z"/>
		
			<path fill="none" stroke="#FFFFFF" stroke-width="0.45" stroke-linecap="round" stroke-linejoin="round" stroke-miterlimit="10" d="
			M43.3,55.8c0,0-12.8,26.7,12,36"/>
	</g>
</g>
</svg>
